<?xml version="1.0" standalone="no"?>
<!DOCTYPE svg PUBLIC "-//W3C//DTD SVG 20010904//EN"
 "http://www.w3.org/TR/2001/REC-SVG-20010904/DTD/svg10.dtd">
<svg version="1.0" xmlns="http://www.w3.org/2000/svg"
 width="468pt" height="468pt" viewBox="0 0 468 468"
 preserveAspectRatio="xMidYMid meet">
<metadata>
Created by potrace 1.9, written by Peter Selinger 2001-2010
</metadata>
<g transform="translate(0,468) scale(0.091406,-0.091406)"
fill="#000000" stroke="none">
<path d="M0 2560 l0 -2560 2560 0 2560 0 0 2560 0 2560 -2560 0 -2560 0 0
-2560z m2854 2502 c6 -5 32 -13 59 -16 26 -4 59 -14 75 -22 15 -7 33 -14 40
-14 12 0 22 -4 79 -34 17 -9 38 -16 47 -16 9 0 16 -4 16 -10 0 -5 6 -10 13
-10 15 0 150 -88 155 -101 2 -5 9 -9 15 -9 13 0 237 -222 237 -234 0 -4 14
-21 30 -38 17 -16 30 -36 30 -44 0 -8 5 -14 11 -14 5 0 19 -20 30 -45 11 -25
23 -45 27 -45 8 0 32 -49 32 -66 0 -6 6 -17 14 -23 8 -7 17 -24 21 -39 4 -15
10 -29 13 -32 11 -8 42 -102 42 -126 0 -12 7 -35 15 -50 8 -16 15 -50 15 -76
0 -28 5 -48 13 -50 9 -4 12 -49 12 -179 0 -174 0 -176 -29 -235 -28 -55 -130
-174 -150 -174 -5 0 -18 -10 -30 -22 -27 -28 -79 -58 -100 -58 -9 0 -16 -4
-16 -9 0 -4 -15 -13 -32 -19 -27 -8 -12 -10 84 -11 66 -1 120 -5 123 -11 3 -5
19 -10 36 -10 16 0 29 -4 29 -9 0 -5 12 -12 26 -15 15 -4 39 -20 55 -36 25
-24 29 -36 29 -84 0 -30 -4 -57 -9 -60 -4 -3 -11 -63 -15 -133 -4 -70 -11
-129 -17 -131 -5 -2 -8 -22 -7 -45 1 -37 2 -38 5 -9 2 17 8 32 12 32 5 0 12
19 15 43 4 29 16 52 35 70 35 32 41 33 69 8 21 -17 22 -27 22 -195 0 -97 -4
-176 -8 -176 -5 0 -12 -57 -15 -127 -4 -70 -11 -129 -16 -132 -5 -3 -12 -48
-16 -99 -4 -50 -11 -92 -16 -92 -5 0 -9 -20 -9 -44 0 -25 -4 -47 -9 -50 -5 -3
-12 -33 -16 -66 -4 -33 -10 -60 -15 -60 -4 0 -11 -31 -14 -70 -4 -38 -11 -70
-15 -70 -5 0 -11 -27 -15 -60 -4 -33 -11 -62 -15 -64 -5 -3 -11 -28 -15 -55
-4 -28 -11 -53 -16 -56 -6 -3 -10 -19 -10 -36 0 -16 -4 -29 -9 -29 -4 0 -12
-31 -15 -70 -4 -38 -11 -70 -16 -70 -5 0 -12 -25 -15 -55 -4 -30 -11 -55 -16
-55 -5 0 -9 -13 -9 -28 0 -15 -4 -32 -8 -37 -5 -6 -20 -44 -32 -85 -13 -41
-30 -86 -37 -100 -7 -14 -13 -33 -13 -42 0 -10 -4 -18 -10 -18 -5 0 -10 -7
-10 -16 0 -18 -31 -77 -42 -82 -5 -2 -8 -8 -8 -14 0 -17 -43 -98 -52 -98 -4 0
-8 -6 -8 -13 0 -7 -15 -28 -34 -46 -26 -25 -39 -31 -56 -26 -22 7 -23 10 -18
129 3 66 3 114 0 106 -8 -25 -66 -145 -73 -150 -4 -3 -17 -24 -29 -47 -12 -24
-26 -43 -30 -43 -4 0 -11 -11 -14 -25 -4 -14 -11 -25 -16 -25 -6 0 -10 -5 -10
-11 0 -37 -263 -299 -300 -299 -6 0 -10 -3 -10 -8 0 -8 -73 -42 -90 -42 -6 0
-10 -4 -10 -10 0 -5 -23 -12 -50 -16 -28 -4 -53 -11 -56 -15 -7 -12 -234 -12
-234 0 0 4 -24 11 -52 14 -29 3 -66 12 -83 21 -16 9 -36 16 -42 16 -7 0 -13 5
-13 10 0 6 -7 10 -15 10 -8 0 -15 4 -15 9 0 5 -12 12 -26 15 -15 4 -33 14 -41
22 -8 8 -31 27 -51 42 -43 32 -162 153 -162 165 0 5 -16 23 -35 40 -19 17 -35
35 -35 40 0 5 -9 20 -20 34 -11 14 -17 29 -14 34 9 15 -7 52 -17 42 -6 -6 -6
-20 0 -36 9 -23 7 -30 -17 -52 -22 -20 -37 -25 -80 -25 -53 0 -55 1 -123 67
-38 36 -69 72 -69 79 0 7 -6 17 -12 21 -17 11 -26 26 -107 188 -39 77 -73 152
-77 168 -3 15 -10 27 -14 27 -4 0 -11 20 -14 45 -4 25 -11 45 -15 45 -4 0 -16
26 -26 58 -9 31 -21 64 -25 73 -5 9 -11 37 -15 63 -4 25 -11 46 -15 46 -5 0
-12 25 -15 55 -4 30 -11 55 -15 55 -4 0 -10 22 -14 50 -4 27 -11 52 -16 55 -6
3 -10 21 -10 40 0 19 -4 36 -9 40 -6 3 -13 37 -17 75 -3 38 -12 71 -18 73 -8
3 -13 40 -14 103 -2 55 -7 103 -12 108 -12 12 -13 493 -1 500 4 3 12 51 15
106 4 55 11 100 16 100 4 0 10 18 14 40 3 23 10 49 15 58 5 9 17 34 27 55 10
20 22 37 26 37 5 0 8 6 8 13 0 7 14 26 30 42 l30 29 0 140 c0 139 0 142 27
170 l27 29 168 -6 c110 -5 167 -3 163 3 -3 6 -13 10 -21 10 -7 0 -19 9 -26 20
-7 11 -19 20 -26 20 -6 0 -20 9 -29 20 -10 11 -22 20 -28 20 -13 0 -110 100
-141 145 -61 91 -67 117 -61 278 3 82 10 154 15 160 6 7 13 38 17 70 4 31 11
57 16 57 5 0 9 11 9 25 0 14 6 40 13 58 8 18 18 50 22 72 5 22 9 42 11 45 1 3
5 15 9 28 4 12 11 22 15 22 5 0 11 14 15 30 4 17 11 30 16 30 5 0 9 5 9 11 0
13 31 82 41 89 3 3 10 16 14 30 4 14 17 34 29 45 12 11 32 38 45 60 29 47 173
195 190 195 6 0 14 7 17 15 4 8 12 15 19 15 8 0 20 6 27 13 20 18 50 37 71 43
9 4 17 10 17 14 0 4 12 11 28 14 37 10 82 30 82 37 0 4 20 10 45 13 24 4 47
11 50 16 3 4 39 11 80 15 41 4 75 11 75 16 0 4 33 10 73 12 114 7 428 -1 441
-11z"/>
<path d="M2657 4684 c-90 -18 -194 -56 -292 -107 -113 -59 -255 -202 -306
-307 -48 -98 -63 -159 -63 -246 2 -288 370 -418 1184 -419 300 0 318 1 387 23
111 35 160 85 189 197 18 65 17 133 -1 221 -19 92 -20 94 -66 189 -111 227
-346 397 -624 450 -95 18 -314 18 -408 -1z m746 -471 c-13 -2 -35 -2 -50 0
-16 2 -5 4 22 4 28 0 40 -2 28 -4z m60 -40 c-18 -2 -48 -2 -65 0 -18 2 -4 4
32 4 36 0 50 -2 33 -4z m50 -80 c-13 -2 -35 -2 -50 0 -16 2 -5 4 22 4 28 0 40
-2 28 -4z"/>
<path d="M3827 2493 c-19 -69 -45 -244 -34 -233 7 8 57 209 57 230 0 25 -17
26 -23 3z"/>
<path d="M3482 1007 c-24 -46 -53 -137 -47 -146 9 -15 35 -1 35 19 0 10 7 46
16 80 17 65 15 85 -4 47z"/>
</g>
</svg>
